<svg width="104" height="20" viewBox="0 0 104 20" fill="none" xmlns="http://www.w3.org/2000/svg">
<path d="M0.434659 15V0.454545H3.0696V12.7912H9.47585V15H0.434659ZM14.7884 15.2202C14.0971 15.2202 13.4744 15.0971 12.9205 14.8509C12.3712 14.5999 11.9356 14.2306 11.6136 13.7429C11.2964 13.2552 11.1378 12.6539 11.1378 11.9389C11.1378 11.3234 11.2514 10.8144 11.4787 10.4119C11.706 10.0095 12.0161 9.6875 12.4091 9.44602C12.8021 9.20455 13.2448 9.02225 13.7372 8.89915C14.2344 8.77131 14.7481 8.67898 15.2784 8.62216C15.9176 8.55587 16.4361 8.49669 16.8338 8.4446C17.2315 8.38778 17.5204 8.30256 17.7003 8.18892C17.8849 8.07055 17.9773 7.88826 17.9773 7.64205V7.59943C17.9773 7.06439 17.8187 6.65009 17.5014 6.35653C17.1842 6.06297 16.7273 5.91619 16.1307 5.91619C15.5009 5.91619 15.0014 6.0535 14.6321 6.32812C14.2675 6.60275 14.0213 6.92708 13.8935 7.30114L11.4929 6.96023C11.6823 6.29735 11.9948 5.74337 12.4304 5.2983C12.866 4.84848 13.3987 4.51231 14.0284 4.28977C14.6581 4.0625 15.3542 3.94886 16.1165 3.94886C16.642 3.94886 17.1652 4.01042 17.6861 4.13352C18.2069 4.25663 18.6828 4.46023 19.1136 4.74432C19.5445 5.02367 19.8902 5.40483 20.1506 5.88778C20.4157 6.37074 20.5483 6.97443 20.5483 7.69886V15H18.0767V13.5014H17.9915C17.8352 13.8045 17.6151 14.0885 17.331 14.3537C17.0516 14.6141 16.6989 14.8248 16.2727 14.9858C15.8513 15.142 15.3565 15.2202 14.7884 15.2202ZM15.456 13.331C15.9721 13.331 16.4195 13.2292 16.7983 13.0256C17.1771 12.8172 17.4683 12.5426 17.6719 12.2017C17.8802 11.8608 17.9844 11.4891 17.9844 11.0866V9.80114C17.9039 9.86742 17.7666 9.92898 17.5724 9.9858C17.383 10.0426 17.17 10.0923 16.9332 10.1349C16.6965 10.1776 16.4621 10.2154 16.2301 10.2486C15.9981 10.2817 15.7969 10.3101 15.6264 10.3338C15.2429 10.3859 14.8996 10.4711 14.5966 10.5895C14.2936 10.7079 14.0545 10.8736 13.8793 11.0866C13.7041 11.295 13.6165 11.5649 13.6165 11.8963C13.6165 12.3698 13.7893 12.7273 14.1349 12.9688C14.4806 13.2102 14.9209 13.331 15.456 13.331ZM25.7045 8.60795V15H23.1335V4.09091H25.5909V5.9446H25.7188C25.9697 5.33381 26.3698 4.84848 26.919 4.48864C27.473 4.12879 28.1572 3.94886 28.9716 3.94886C29.7244 3.94886 30.3802 4.10985 30.9389 4.43182C31.5024 4.75379 31.938 5.22017 32.2457 5.83097C32.5582 6.44176 32.7121 7.18276 32.7074 8.05398V15H30.1364V8.4517C30.1364 7.72254 29.947 7.15199 29.5682 6.74006C29.1941 6.32812 28.6757 6.12216 28.0128 6.12216C27.563 6.12216 27.1629 6.22159 26.8125 6.42045C26.4669 6.61458 26.1946 6.89631 25.9957 7.26562C25.8016 7.63494 25.7045 8.08239 25.7045 8.60795ZM39.3693 15.1918C38.5123 15.1918 37.7453 14.9716 37.0682 14.5312C36.3911 14.0909 35.8561 13.4517 35.4631 12.6136C35.0701 11.7756 34.8736 10.7576 34.8736 9.55966C34.8736 8.34754 35.0724 7.32481 35.4702 6.49148C35.8726 5.65341 36.4148 5.02131 37.0966 4.59517C37.7784 4.1643 38.5384 3.94886 39.3764 3.94886C40.0156 3.94886 40.5412 4.05777 40.9531 4.27557C41.3651 4.48864 41.6918 4.74669 41.9332 5.04972C42.1747 5.34801 42.3617 5.62973 42.4943 5.89489H42.6009V0.454545H45.179V15H42.6506V13.2812H42.4943C42.3617 13.5464 42.17 13.8281 41.919 14.1264C41.6681 14.42 41.3366 14.6709 40.9247 14.8793C40.5128 15.0876 39.9943 15.1918 39.3693 15.1918ZM40.0866 13.0824C40.6312 13.0824 41.0952 12.9356 41.4787 12.642C41.8622 12.3437 42.1534 11.9295 42.3523 11.3991C42.5511 10.8688 42.6506 10.2509 42.6506 9.54545C42.6506 8.83996 42.5511 8.2268 42.3523 7.70597C42.1581 7.18513 41.8693 6.7803 41.4858 6.49148C41.107 6.20265 40.6406 6.05824 40.0866 6.05824C39.5137 6.05824 39.0355 6.20739 38.652 6.50568C38.2685 6.80398 37.9796 7.21591 37.7855 7.74148C37.5914 8.26705 37.4943 8.86837 37.4943 9.54545C37.4943 10.2273 37.5914 10.8357 37.7855 11.3707C37.9844 11.901 38.2756 12.3201 38.6591 12.6278C39.0473 12.9309 39.5232 13.0824 40.0866 13.0824ZM47.7624 15V13.3594L55.2198 2.66335H47.7198V0.454545H58.4869V2.09517L51.0366 12.7912H58.5295V15H47.7624ZM67.908 15H65.0955L70.2163 0.454545H73.4691L78.5969 15H75.7844L71.8995 3.4375H71.7859L67.908 15ZM68.0004 9.29688H75.6708V11.4134H68.0004V9.29688ZM80.3991 19.0909V4.09091H82.9276V5.89489H83.0767C83.2093 5.62973 83.3963 5.34801 83.6378 5.04972C83.8793 4.74669 84.206 4.48864 84.6179 4.27557C85.0298 4.05777 85.5554 3.94886 86.1946 3.94886C87.0374 3.94886 87.7973 4.1643 88.4744 4.59517C89.1563 5.02131 89.696 5.65341 90.0938 6.49148C90.4962 7.32481 90.6974 8.34754 90.6974 9.55966C90.6974 10.7576 90.5009 11.7756 90.108 12.6136C89.715 13.4517 89.1799 14.0909 88.5028 14.5312C87.8258 14.9716 87.0587 15.1918 86.2017 15.1918C85.5767 15.1918 85.0582 15.0876 84.6463 14.8793C84.2344 14.6709 83.9029 14.42 83.652 14.1264C83.4058 13.8281 83.214 13.5464 83.0767 13.2812H82.9702V19.0909H80.3991ZM82.9205 9.54545C82.9205 10.2509 83.0199 10.8688 83.2188 11.3991C83.4223 11.9295 83.7135 12.3437 84.0923 12.642C84.4759 12.9356 84.9399 13.0824 85.4844 13.0824C86.0526 13.0824 86.5284 12.9309 86.9119 12.6278C87.2955 12.3201 87.5843 11.901 87.7784 11.3707C87.9773 10.8357 88.0767 10.2273 88.0767 9.54545C88.0767 8.86837 87.9796 8.26705 87.7855 7.74148C87.5914 7.21591 87.3026 6.80398 86.919 6.50568C86.5355 6.20739 86.0573 6.05824 85.4844 6.05824C84.9351 6.05824 84.4688 6.20265 84.0852 6.49148C83.7017 6.7803 83.4105 7.18513 83.2116 7.70597C83.0175 8.2268 82.9205 8.83996 82.9205 9.54545ZM92.8991 19.0909V4.09091H95.4276V5.89489H95.5767C95.7093 5.62973 95.8963 5.34801 96.1378 5.04972C96.3793 4.74669 96.706 4.48864 97.1179 4.27557C97.5298 4.05777 98.0554 3.94886 98.6946 3.94886C99.5374 3.94886 100.297 4.1643 100.974 4.59517C101.656 5.02131 102.196 5.65341 102.594 6.49148C102.996 7.32481 103.197 8.34754 103.197 9.55966C103.197 10.7576 103.001 11.7756 102.608 12.6136C102.215 13.4517 101.68 14.0909 101.003 14.5312C100.326 14.9716 99.5587 15.1918 98.7017 15.1918C98.0767 15.1918 97.5582 15.0876 97.1463 14.8793C96.7344 14.6709 96.4029 14.42 96.152 14.1264C95.9058 13.8281 95.714 13.5464 95.5767 13.2812H95.4702V19.0909H92.8991ZM95.4205 9.54545C95.4205 10.2509 95.5199 10.8688 95.7188 11.3991C95.9223 11.9295 96.2135 12.3437 96.5923 12.642C96.9759 12.9356 97.4399 13.0824 97.9844 13.0824C98.5526 13.0824 99.0284 12.9309 99.4119 12.6278C99.7955 12.3201 100.084 11.901 100.278 11.3707C100.477 10.8357 100.577 10.2273 100.577 9.54545C100.577 8.86837 100.48 8.26705 100.286 7.74148C100.091 7.21591 99.8026 6.80398 99.419 6.50568C99.0355 6.20739 98.5573 6.05824 97.9844 6.05824C97.4351 6.05824 96.9688 6.20265 96.5852 6.49148C96.2017 6.7803 95.9105 7.18513 95.7116 7.70597C95.5175 8.2268 95.4205 8.83996 95.4205 9.54545Z" fill="#065E14"/>
</svg>
